<svg xmlns="http://www.w3.org/2000/svg" viewBox="0 0 128 128" role="img" aria-labelledby="title desc">
  <title>VBoard icon</title>
  <desc>Stylized blue virtual keyboard with highlighted keys.</desc>
  <defs>
    <linearGradient id="bg" x1="0%" y1="0%" x2="100%" y2="100%">
      <stop offset="0%" stop-color="#0f172a"/>
      <stop offset="100%" stop-color="#164e63"/>
    </linearGradient>
    <linearGradient id="key" x1="0%" y1="0%" x2="0%" y2="100%">
      <stop offset="0%" stop-color="#e2e8f0"/>
      <stop offset="100%" stop-color="#cbd5e1"/>
    </linearGradient>
  </defs>
  <rect x="8" y="20" width="112" height="88" rx="20" fill="url(#bg)"/>
  <rect x="16" y="28" width="96" height="72" rx="14" fill="#0b1220" opacity="0.55"/>
  <g fill="url(#key)">
    <rect x="22" y="36" width="14" height="12" rx="3"/>
    <rect x="40" y="36" width="14" height="12" rx="3"/>
    <rect x="58" y="36" width="14" height="12" rx="3"/>
    <rect x="76" y="36" width="14" height="12" rx="3"/>
    <rect x="94" y="36" width="12" height="12" rx="3"/>
    <rect x="22" y="54" width="18" height="12" rx="3"/>
    <rect x="44" y="54" width="14" height="12" rx="3"/>
    <rect x="62" y="54" width="14" height="12" rx="3"/>
    <rect x="80" y="54" width="14" height="12" rx="3"/>
    <rect x="98" y="54" width="8" height="12" rx="3"/>
    <rect x="22" y="72" width="24" height="12" rx="3"/>
    <rect x="50" y="72" width="14" height="12" rx="3"/>
    <rect x="68" y="72" width="14" height="12" rx="3"/>
    <rect x="86" y="72" width="20" height="12" rx="3"/>
  </g>
  <rect x="32" y="91" width="64" height="7" rx="3.5" fill="#22d3ee"/>
</svg>
